<svg version="1.1" id="Layer_1" xmlns="http://www.w3.org/2000/svg" xmlns:xlink="http://www.w3.org/1999/xlink" x="0px" y="0px"
	 width="100%" viewBox="0 0 1362 980" enable-background="new 0 0 1362 980" xml:space="preserve">
<path fill="#020202" opacity="1.000000" stroke="none" 
	d="
M993.000000,981.000000 
	C662.000000,981.000000 331.500000,981.000000 1.000000,981.000000 
	C1.000000,654.333313 1.000000,327.666656 1.000000,1.000000 
	C455.000000,1.000000 909.000000,1.000000 1363.000000,1.000000 
	C1363.000000,327.666656 1363.000000,654.333313 1363.000000,981.000000 
	C1239.833374,981.000000 1116.666626,981.000000 993.000000,981.000000 
M647.998840,139.641068 
	C487.334900,154.343750 356.729492,277.820526 332.605560,439.452087 
	C309.769958,592.452087 389.576660,715.690796 469.079407,771.701294 
	C469.079407,657.714417 469.079407,544.045898 469.079407,429.307678 
	C470.194244,430.848114 470.650940,431.469543 471.097809,432.098022 
	C495.796722,466.837830 520.490234,501.581421 545.197937,536.314941 
	C548.947449,541.585999 554.648987,541.609558 558.432434,536.352112 
	C578.179321,508.912201 597.899780,481.453247 617.639587,454.008240 
	C623.387939,446.016113 629.169861,438.048157 634.936401,430.069122 
	C635.280640,430.211761 635.624939,430.354401 635.969177,430.497040 
	C635.969177,489.875305 635.969177,549.253540 635.969177,608.793762 
	C648.684937,608.793762 660.938110,608.793762 673.428101,608.793762 
	C673.428101,530.367920 673.428101,452.164062 673.428101,373.524475 
	C660.296814,373.524475 647.493225,373.654022 634.695312,373.440674 
	C631.140686,373.381409 628.998047,374.481354 626.963928,377.423798 
	C612.664978,398.107513 598.186646,418.667389 583.745117,439.252380 
	C573.430237,453.955170 563.083496,468.635468 552.577698,483.572235 
	C551.512268,482.208221 550.654358,481.201508 549.895447,480.125061 
	C527.156250,447.873322 504.132599,415.815155 481.916321,383.206940 
	C476.784180,375.674225 471.599670,372.593750 462.608917,373.326233 
	C452.220428,374.172638 441.710022,373.523132 430.697388,373.523132 
	C430.697388,476.242493 430.697388,578.371033 430.697388,681.237183 
	C350.624695,576.445374 342.339600,425.403442 423.799957,310.253113 
	C474.703918,238.296585 544.216125,194.265671 631.358948,180.112564 
	C718.327148,165.987823 797.760071,186.297180 869.963745,237.558716 
	C869.963745,223.702332 869.775574,210.720886 870.072754,197.750595 
	C870.168091,193.589371 868.985779,191.208008 865.344543,189.040131 
	C798.508606,149.248199 726.378967,132.773529 647.998840,139.641068 
M700.164124,843.596252 
	C710.608276,842.602356 721.121033,842.072632 731.485718,840.541321 
	C814.233582,828.315674 884.811829,792.142639 941.272461,730.425598 
	C1014.397217,650.492920 1044.722778,555.691589 1032.467041,448.283722 
	C1022.817627,363.719299 985.383545,292.250671 923.662781,233.635971 
	C914.923523,225.336548 905.486389,217.771927 896.372314,209.867203 
	C895.963684,210.102707 895.555054,210.338211 895.146423,210.573715 
	C895.146423,320.027283 895.146423,429.480835 895.146423,540.157288 
	C893.157166,537.785217 891.997009,536.458801 890.898376,535.083252 
	C876.658020,517.252930 862.422119,499.419037 848.193359,481.579437 
	C820.360168,446.682983 792.542847,411.773926 764.664795,376.913361 
	C763.498047,375.454437 761.822327,373.425659 760.321411,373.370880 
	C751.241577,373.039673 742.143616,373.205994 732.949890,373.205994 
	C732.949890,452.010437 732.949890,530.271240 732.949890,608.566895 
	C745.645020,608.566895 758.066650,608.566895 771.045532,608.566895 
	C771.045532,553.674377 771.045532,499.015045 771.045532,443.217468 
	C773.086670,445.658173 774.362732,447.133240 775.584351,448.652100 
	C817.754761,501.087494 859.914062,553.531738 902.123779,605.935547 
	C903.076599,607.118530 904.571167,608.630005 905.848206,608.663940 
	C914.783386,608.901245 923.727966,608.789612 933.112671,608.789612 
	C933.112671,506.046539 933.112671,403.854126 933.112671,301.088531 
	C1002.855286,389.320892 1025.223877,531.270203 953.340576,651.346619 
	C905.706482,730.916077 835.760010,781.187866 744.779053,799.661926 
	C653.779541,818.139893 570.146790,798.316040 494.264587,744.668091 
	C494.101013,745.580505 494.045990,745.744507 494.045898,745.908569 
	C494.039185,755.905212 494.035583,765.901855 494.034729,775.898499 
	C494.033447,790.627991 494.097748,790.515625 506.968109,797.772583 
	C566.677307,831.439514 630.794861,846.558594 700.164124,843.596252 
z"/>
<path fill="#F8F9F9" opacity="1.000000" stroke="none" 
	d="
M648.457092,139.582001 
	C726.378967,132.773529 798.508606,149.248199 865.344543,189.040131 
	C868.985779,191.208008 870.168091,193.589371 870.072754,197.750595 
	C869.775574,210.720886 869.963745,223.702332 869.963745,237.558716 
	C797.760071,186.297180 718.327148,165.987823 631.358948,180.112564 
	C544.216125,194.265671 474.703918,238.296585 423.799957,310.253113 
	C342.339600,425.403442 350.624695,576.445374 430.697388,681.237183 
	C430.697388,578.371033 430.697388,476.242493 430.697388,373.523132 
	C441.710022,373.523132 452.220428,374.172638 462.608917,373.326233 
	C471.599670,372.593750 476.784180,375.674225 481.916321,383.206940 
	C504.132599,415.815155 527.156250,447.873322 549.895447,480.125061 
	C550.654358,481.201508 551.512268,482.208221 552.577698,483.572235 
	C563.083496,468.635468 573.430237,453.955170 583.745117,439.252380 
	C598.186646,418.667389 612.664978,398.107513 626.963928,377.423798 
	C628.998047,374.481354 631.140686,373.381409 634.695312,373.440674 
	C647.493225,373.654022 660.296814,373.524475 673.428101,373.524475 
	C673.428101,452.164062 673.428101,530.367920 673.428101,608.793762 
	C660.938110,608.793762 648.684937,608.793762 635.969177,608.793762 
	C635.969177,549.253540 635.969177,489.875305 635.969177,430.497040 
	C635.624939,430.354401 635.280640,430.211761 634.936401,430.069122 
	C629.169861,438.048157 623.387939,446.016113 617.639587,454.008240 
	C597.899780,481.453247 578.179321,508.912201 558.432434,536.352112 
	C554.648987,541.609558 548.947449,541.585999 545.197937,536.314941 
	C520.490234,501.581421 495.796722,466.837830 471.097809,432.098022 
	C470.650940,431.469543 470.194244,430.848114 469.079407,429.307678 
	C469.079407,544.045898 469.079407,657.714417 469.079407,771.701294 
	C389.576660,715.690796 309.769958,592.452087 332.605560,439.452087 
	C356.729492,277.820526 487.334900,154.343750 648.457092,139.582001 
z"/>
<path fill="#F8F9F9" opacity="1.000000" stroke="none" 
	d="
M699.692505,843.634644 
	C630.794861,846.558594 566.677307,831.439514 506.968109,797.772583 
	C494.097748,790.515625 494.033447,790.627991 494.034729,775.898499 
	C494.035583,765.901855 494.039185,755.905212 494.045898,745.908569 
	C494.045990,745.744507 494.101013,745.580505 494.264587,744.668091 
	C570.146790,798.316040 653.779541,818.139893 744.779053,799.661926 
	C835.760010,781.187866 905.706482,730.916077 953.340576,651.346619 
	C1025.223877,531.270203 1002.855286,389.320892 933.112671,301.088531 
	C933.112671,403.854126 933.112671,506.046539 933.112671,608.789612 
	C923.727966,608.789612 914.783386,608.901245 905.848206,608.663940 
	C904.571167,608.630005 903.076599,607.118530 902.123779,605.935547 
	C859.914062,553.531738 817.754761,501.087494 775.584351,448.652100 
	C774.362732,447.133240 773.086670,445.658173 771.045532,443.217468 
	C771.045532,499.015045 771.045532,553.674377 771.045532,608.566895 
	C758.066650,608.566895 745.645020,608.566895 732.949890,608.566895 
	C732.949890,530.271240 732.949890,452.010437 732.949890,373.205994 
	C742.143616,373.205994 751.241577,373.039673 760.321411,373.370880 
	C761.822327,373.425659 763.498047,375.454437 764.664795,376.913361 
	C792.542847,411.773926 820.360168,446.682983 848.193359,481.579437 
	C862.422119,499.419037 876.658020,517.252930 890.898376,535.083252 
	C891.997009,536.458801 893.157166,537.785217 895.146423,540.157288 
	C895.146423,429.480835 895.146423,320.027283 895.146423,210.573715 
	C895.555054,210.338211 895.963684,210.102707 896.372314,209.867203 
	C905.486389,217.771927 914.923523,225.336548 923.662781,233.635971 
	C985.383545,292.250671 1022.817627,363.719299 1032.467041,448.283722 
	C1044.722778,555.691589 1014.397217,650.492920 941.272461,730.425598 
	C884.811829,792.142639 814.233582,828.315674 731.485718,840.541321 
	C721.121033,842.072632 710.608276,842.602356 699.692505,843.634644 
z"/>
</svg>